<svg width="222" height="53" viewBox="0 0 222 53" fill="none" xmlns="http://www.w3.org/2000/svg">
<path d="M28.6673 52C26.0673 52 23.8873 51.64 22.1273 50.92C20.4073 50.2 19.0273 49.22 17.9873 47.98C16.9473 46.74 16.1673 45.32 15.6473 43.72C15.1273 42.12 14.7673 40.44 14.5673 38.68C11.6873 38.68 9.18734 38.56 7.06734 38.32C4.98734 38.08 3.36734 37.54 2.20734 36.7C1.08734 35.86 0.527344 34.54 0.527344 32.74C0.527344 30.98 1.08734 29.68 2.20734 28.84C3.32734 28 4.92734 27.46 7.00734 27.22C9.08734 26.94 11.5473 26.8 14.3873 26.8C14.4273 25.56 14.4673 24.32 14.5073 23.08C11.6273 23.08 9.14734 22.94 7.06734 22.66C4.98734 22.38 3.36734 21.78 2.20734 20.86C1.08734 19.94 0.527344 18.5 0.527344 16.54C0.527344 14.78 1.02734 13.42 2.02734 12.46C3.02734 11.5 4.44734 10.8 6.28734 10.36C8.12734 9.92 10.3273 9.66 12.8873 9.58C15.4473 9.46 18.3073 9.4 21.4673 9.4C24.6273 9.4 27.4873 9.44 30.0473 9.52C32.6073 9.56 34.8073 9.78 36.6473 10.18C38.5273 10.58 39.9673 11.28 40.9673 12.28C41.9673 13.24 42.4673 14.64 42.4673 16.48C42.4673 18.6 41.8273 20.12 40.5473 21.04C39.2673 21.96 37.4473 22.54 35.0873 22.78C32.7673 22.98 30.0073 23.06 26.8073 23.02C26.7673 23.7 26.7273 24.36 26.6873 25C26.6473 25.6 26.6073 26.18 26.5673 26.74C29.8073 26.74 32.6073 26.82 34.9673 26.98C37.3273 27.14 39.1473 27.64 40.4273 28.48C41.7473 29.32 42.4073 30.72 42.4073 32.68C42.4073 34.56 41.7473 35.92 40.4273 36.76C39.1473 37.6 37.3073 38.12 34.9073 38.32C32.5073 38.52 29.6673 38.62 26.3873 38.62C26.5473 39.9 26.8873 40.84 27.4073 41.44C27.9273 42 28.7873 42.36 29.9873 42.52C31.2273 42.64 32.9473 42.7 35.1473 42.7C36.7473 42.7 38.0073 43.04 38.9273 43.72C39.8873 44.36 40.3673 45.36 40.3673 46.72C40.3673 48.2 39.8273 49.32 38.7473 50.08C37.6673 50.84 36.2473 51.36 34.4873 51.64C32.7273 51.88 30.7873 52 28.6673 52ZM74.9288 52.3C73.0888 52.3 71.6088 51.88 70.4888 51.04C69.4088 50.16 68.5888 49 68.0288 47.56C67.5088 46.08 67.1688 44.42 67.0088 42.58C66.8488 40.74 66.7688 38.86 66.7688 36.94V20.74C66.7688 19.62 66.8288 18.44 66.9488 17.2C67.1088 15.96 67.4088 14.8 67.8488 13.72C68.3288 12.6 69.0488 11.7 70.0088 11.02C70.9688 10.3 72.2488 9.94 73.8488 9.94C75.4488 9.94 76.6888 10.32 77.5688 11.08C78.4488 11.84 79.0888 12.8 79.4888 13.96C79.8888 15.08 80.1288 16.26 80.2088 17.5C80.2888 18.7 80.3288 19.78 80.3288 20.74C80.3288 23.06 80.2888 25.54 80.2088 28.18C80.1688 30.82 80.0888 33.54 79.9688 36.34C81.2488 35.06 82.5288 33.98 83.8088 33.1C85.1288 32.18 86.6488 31.72 88.3688 31.72C89.9688 31.72 91.2288 32.22 92.1488 33.22C93.0688 34.22 93.5288 35.48 93.5288 37C93.5288 38.36 93.1088 39.76 92.2688 41.2C91.4288 42.6 90.3088 43.98 88.9088 45.34C87.5488 46.66 86.0288 47.84 84.3488 48.88C82.7088 49.92 81.0688 50.76 79.4288 51.4C77.7888 52 76.2888 52.3 74.9288 52.3ZM50.5088 51.94C49.1488 51.94 47.9688 51.52 46.9688 50.68C45.9688 49.84 45.4688 48.66 45.4688 47.14C45.4688 46.06 45.6688 45.16 46.0688 44.44C46.5088 43.68 47.0088 42.76 47.5688 41.68C48.2888 40.36 48.8088 38.76 49.1288 36.88C49.4488 35 49.6488 33.04 49.7288 31C49.8088 28.92 49.8288 26.94 49.7888 25.06C49.7488 23.18 49.7288 21.56 49.7288 20.2C49.7288 19.08 49.7688 17.92 49.8488 16.72C49.9688 15.52 50.2288 14.42 50.6288 13.42C51.0688 12.38 51.7088 11.54 52.5488 10.9C53.4288 10.26 54.6288 9.94 56.1488 9.94C57.8288 9.94 59.1288 10.38 60.0488 11.26C61.0088 12.1 61.6688 13.18 62.0288 14.5C62.4288 15.82 62.6688 17.2 62.7488 18.64C62.8288 20.04 62.8688 21.28 62.8688 22.36C62.8688 25.24 62.8088 28.04 62.6888 30.76C62.6088 33.44 62.3288 36.02 61.8488 38.5C61.3688 40.98 60.5088 43.34 59.2688 45.58C58.2688 47.34 57.1088 48.84 55.7888 50.08C54.4688 51.32 52.7088 51.94 50.5088 51.94ZM111.442 51.76C109.922 51.76 108.562 51.34 107.362 50.5C106.162 49.62 105.562 48.4 105.562 46.84C105.562 45.68 105.862 44.7 106.462 43.9C107.062 43.06 107.822 42.3 108.742 41.62C109.702 40.94 110.702 40.26 111.742 39.58C112.822 38.86 113.822 38.06 114.742 37.18C116.342 35.62 117.562 33.94 118.402 32.14C119.242 30.34 119.802 28.54 120.082 26.74C120.402 24.94 120.522 23.28 120.442 21.76H110.482C109.842 25.28 108.902 28.04 107.662 30.04C106.462 32.04 105.142 33.44 103.702 34.24C102.302 35.04 100.942 35.44 99.6216 35.44C98.0216 35.44 96.7016 34.96 95.6616 34C94.6216 33 94.1016 31.64 94.1016 29.92C94.1016 28.12 94.5016 26.5 95.3016 25.06C96.1016 23.62 96.9216 22.02 97.7616 20.26C98.4416 18.82 99.0416 17.3 99.5616 15.7C100.082 14.06 100.882 12.72 101.962 11.68C103.082 10.64 104.382 9.96 105.862 9.64C107.342 9.28 108.842 9.1 110.362 9.1C111.922 9.1 113.322 9.1 114.562 9.1C115.962 9.1 117.582 9.14 119.422 9.22C121.262 9.26 123.022 9.44 124.702 9.76C126.382 10.04 127.702 10.54 128.662 11.26C130.302 12.42 131.442 14.02 132.082 16.06C132.762 18.06 133.102 20.24 133.102 22.6C133.102 25.72 132.682 28.72 131.842 31.6C131.042 34.48 129.922 37.14 128.482 39.58C127.082 42.02 125.462 44.16 123.622 46C121.782 47.8 119.822 49.22 117.742 50.26C115.662 51.26 113.562 51.76 111.442 51.76ZM137.782 10.42C136.582 10.42 135.782 9.94 135.382 8.98C135.022 7.98 134.842 6.72 134.842 5.2C134.842 3.92 135.042 2.78 135.442 1.78C135.842 0.739998 136.662 0.219998 137.902 0.219998C140.062 0.219998 141.142 1.76 141.142 4.84C141.142 6.36 140.902 7.68 140.422 8.8C139.942 9.88 139.062 10.42 137.782 10.42ZM130.342 10.42C129.182 10.42 128.382 9.96 127.942 9.04C127.502 8.08 127.282 6.74 127.282 5.02C127.282 3.54 127.502 2.38 127.942 1.54C128.382 0.659998 129.182 0.219998 130.342 0.219998C131.502 0.219998 132.322 0.659998 132.802 1.54C133.282 2.38 133.522 3.56 133.522 5.08C133.522 6.76 133.282 8.08 132.802 9.04C132.322 9.96 131.502 10.42 130.342 10.42ZM158.896 21.64C156.696 21.64 154.476 21.6 152.236 21.52C150.036 21.4 148.016 21.14 146.176 20.74C144.336 20.3 142.856 19.64 141.736 18.76C140.616 17.84 140.056 16.58 140.056 14.98C140.056 13.3 140.616 12 141.736 11.08C142.856 10.16 144.336 9.5 146.176 9.1C148.016 8.7 150.036 8.46 152.236 8.38C154.476 8.3 156.696 8.26 158.896 8.26C161.176 8.26 163.436 8.3 165.676 8.38C167.956 8.46 170.016 8.7 171.856 9.1C173.736 9.5 175.236 10.16 176.356 11.08C177.476 12 178.036 13.3 178.036 14.98C178.036 16.58 177.476 17.84 176.356 18.76C175.236 19.64 173.736 20.3 171.856 20.74C170.016 21.14 167.956 21.4 165.676 21.52C163.436 21.6 161.176 21.64 158.896 21.64ZM158.776 51.94C157.536 51.9 156.616 51.56 156.016 50.92C155.456 50.28 155.176 49.52 155.176 48.64C155.176 47.6 155.556 46.76 156.316 46.12C157.076 45.48 157.896 44.88 158.776 44.32C159.776 43.64 160.796 42.92 161.836 42.16C162.916 41.36 163.876 40.52 164.716 39.64C165.556 38.76 166.136 37.86 166.456 36.94C164.976 36.98 163.316 37.02 161.476 37.06C159.636 37.06 157.956 37.06 156.436 37.06C154.636 37.06 152.736 37.06 150.736 37.06C148.776 37.06 146.916 36.92 145.156 36.64C143.436 36.36 142.036 35.82 140.956 35.02C139.876 34.22 139.336 33 139.336 31.36C139.336 29.68 139.936 28.4 141.136 27.52C142.336 26.64 143.896 26.04 145.816 25.72C147.736 25.36 149.796 25.16 151.996 25.12C154.196 25.08 156.276 25.06 158.236 25.06C160.916 25.06 163.476 25.1 165.916 25.18C168.396 25.26 170.616 25.56 172.576 26.08C174.536 26.56 176.076 27.44 177.196 28.72C178.356 30 178.936 31.84 178.936 34.24C178.936 36.2 178.416 38.24 177.376 40.36C176.336 42.44 174.876 44.38 172.996 46.18C171.156 47.94 169.016 49.36 166.576 50.44C164.136 51.48 161.536 51.98 158.776 51.94ZM195.237 52C193.757 52 192.357 51.68 191.037 51.04C189.757 50.36 189.077 49.22 188.997 47.62C188.917 45.98 189.457 44.7 190.617 43.78C191.817 42.82 193.417 42.06 195.417 41.5C197.297 40.94 199.177 40.02 201.057 38.74C202.937 37.46 204.497 35.84 205.737 33.88C206.977 31.92 207.597 29.64 207.597 27.04C207.037 27.04 206.177 27.04 205.017 27.04C203.857 27.04 202.577 27.06 201.177 27.1C199.777 27.1 198.417 27.12 197.097 27.16C195.777 27.16 194.637 27.16 193.677 27.16C192.717 27.16 192.097 27.16 191.817 27.16C189.777 27.16 187.857 27.04 186.057 26.8C184.297 26.56 182.857 26 181.737 25.12C180.657 24.2 180.117 22.76 180.117 20.8C180.117 18.96 180.677 17.5 181.797 16.42C182.957 15.34 184.477 14.54 186.357 14.02C188.237 13.46 190.277 13.1 192.477 12.94C194.677 12.78 196.857 12.7 199.017 12.7C202.377 12.7 205.417 12.88 208.137 13.24C210.897 13.56 213.277 14.22 215.277 15.22C217.277 16.18 218.797 17.62 219.837 19.54C220.917 21.42 221.457 23.92 221.457 27.04C221.457 30.92 220.717 34.42 219.237 37.54C217.757 40.62 215.777 43.24 213.297 45.4C210.817 47.52 208.017 49.16 204.897 50.32C201.777 51.44 198.557 52 195.237 52Z" fill="#592C15"/>
</svg>
