<svg width="23" height="23" viewBox="0 0 23 23" fill="none" xmlns="http://www.w3.org/2000/svg">
<path d="M11.5 11.5C9.9875 11.5 8.69271 10.9615 7.61563 9.88438C6.53854 8.80729 6 7.5125 6 6C6 4.4875 6.53854 3.19271 7.61563 2.11563C8.69271 1.03854 9.9875 0.5 11.5 0.5C13.0125 0.5 14.3073 1.03854 15.3844 2.11563C16.4615 3.19271 17 4.4875 17 6C17 7.5125 16.4615 8.80729 15.3844 9.88438C14.3073 10.9615 13.0125 11.5 11.5 11.5ZM0.5 22.5V18.65C0.5 17.8708 0.700521 17.1547 1.10156 16.5016C1.5026 15.8484 2.03542 15.35 2.7 15.0063C4.12083 14.2958 5.56458 13.763 7.03125 13.4078C8.49792 13.0526 9.9875 12.875 11.5 12.875C13.0125 12.875 14.5021 13.0526 15.9688 13.4078C17.4354 13.763 18.8792 14.2958 20.3 15.0063C20.9646 15.35 21.4974 15.8484 21.8984 16.5016C22.2995 17.1547 22.5 17.8708 22.5 18.65V22.5H0.5ZM3.25 19.75H19.75V18.65C19.75 18.3979 19.687 18.1687 19.5609 17.9625C19.4349 17.7562 19.2688 17.5958 19.0625 17.4813C17.825 16.8625 16.576 16.3984 15.3156 16.0891C14.0552 15.7797 12.7833 15.625 11.5 15.625C10.2167 15.625 8.94479 15.7797 7.68437 16.0891C6.42396 16.3984 5.175 16.8625 3.9375 17.4813C3.73125 17.5958 3.5651 17.7562 3.43906 17.9625C3.31302 18.1687 3.25 18.3979 3.25 18.65V19.75ZM11.5 8.75C12.2563 8.75 12.9036 8.48073 13.4422 7.94219C13.9807 7.40365 14.25 6.75625 14.25 6C14.25 5.24375 13.9807 4.59635 13.4422 4.05781C12.9036 3.51927 12.2563 3.25 11.5 3.25C10.7437 3.25 10.0964 3.51927 9.55781 4.05781C9.01927 4.59635 8.75 5.24375 8.75 6C8.75 6.75625 9.01927 7.40365 9.55781 7.94219C10.0964 8.48073 10.7437 8.75 11.5 8.75Z" fill="#1D1B20"/>
</svg>
